<svg
	xmlns="http://www.w3.org/2000/svg" viewBox="0 0 431.26 143.75" role="img">
    <title>Logo of New York City</title>
	<defs>
		<style>.cls-1{fill:#0a5796;}</style>
	</defs>
	<g id="Layer_2" data-name="Layer 2">
		<g id="Layer_1-2" data-name="Layer 1">
			<polygon class="cls-1" points="404.31 0 314.46 0 287.51 26.95 287.51 116.8 314.46 143.75 404.31 143.75 431.26 116.8 431.26 89.85 422.28 80.85 377.35 80.85 377.35 89.85 341.42 89.85 341.42 53.91 377.35 53.91 377.35 62.78 422.28 62.78 431.26 53.91 431.26 26.95 404.31 0"/>
			<polygon class="cls-1" points="134.77 0 98.83 0 89.85 8.98 89.85 44.92 44.92 0 8.99 0 0 8.98 0 134.77 8.99 143.75 44.92 143.75 53.91 134.77 53.91 98.83 98.83 143.75 98.83 143.75 134.77 143.75 143.76 134.77 143.76 8.98 134.77 0"/>
			<polygon class="cls-1" points="197.66 143.75 233.6 143.75 242.59 134.77 242.59 107.81 287.51 62.89 287.51 8.98 278.52 0 242.59 0 233.6 8.98 233.6 26.95 215.63 44.92 197.66 26.95 197.66 26.95 197.66 8.98 188.68 0 152.74 0 143.76 8.98 143.76 62.89 188.68 107.81 188.68 134.77 197.66 143.75"/>
		</g>
	</g>
</svg>