<?xml version="1.0" encoding="utf-8"?>
<!-- Generator: Adobe Illustrator 25.0.1, SVG Export Plug-In . SVG Version: 6.00 Build 0)  -->
<svg version="1.1" id="Layer_1" xmlns="http://www.w3.org/2000/svg" xmlns:xlink="http://www.w3.org/1999/xlink" x="0px" y="0px"
	 viewBox="0 0 448 512" style="enable-background:new 0 0 448 512;" xml:space="preserve">
<style type="text/css">
	.st0{fill:#1771B7;}
</style>
<path class="st0" d="M443,265c-5-6-12-9-19-9H288c0,0,0,0-1,0c-9-12-19-22-30-31l72-72c5-5,8-13,7-21c-1-7-6-14-13-17L203,51
	c-8-5-18-4-26,2l-72,56c-10,8-12,23-4,34c8,10,23,12,34,4l59-46l78,41l-59,60c-17-6-35-10-53-10C72,192,0,264,0,352s72,160,160,160
	s160-72,160-160c0-17-3-33-8-48h83l-27,131c-2,13,6,26,19,29c2,0,3,0,5,0c11,0,21-8,24-19l32-160C449,278,447,270,443,265z M160,464
	c-62,0-112-50-112-112s50-112,112-112s112,50,112,112S222,464,160,464z M368,96c26,0,48-22,48-48S394,0,368,0s-48,22-48,48
	S342,96,368,96z"/>
</svg>
